<!DOCTYPE svg PUBLIC "-//W3C//DTD SVG 1.1//EN" "http://www.w3.org/Graphics/SVG/1.1/DTD/svg11.dtd">

<!-- Uploaded to: SVG Repo, www.svgrepo.com, Transformed by: SVG Repo Mixer Tools -->
<svg fill="#b51d1d" width="800px" height="800px" viewBox="0 0 32 32" version="1.1" xmlns="http://www.w3.org/2000/svg">

<g id="SVGRepo_bgCarrier" stroke-width="0"/>

<g id="SVGRepo_tracerCarrier" stroke-linecap="round" stroke-linejoin="round"/>

<g id="SVGRepo_iconCarrier"> <title>arrow-right-to-bracket</title> <path d="M30 1.25h-8c-0.414 0-0.75 0.336-0.75 0.75s0.336 0.75 0.75 0.75v0h7.25v26.5h-7.25c-0.414 0-0.75 0.336-0.75 0.75s0.336 0.75 0.75 0.75v0h8c0.414-0 0.75-0.336 0.75-0.75v0-28c-0-0.414-0.336-0.75-0.75-0.75v0zM24.569 16.438c0.040-0.052 0.098-0.088 0.124-0.151 0.013-0.050 0.020-0.108 0.020-0.167 0-0.011-0-0.021-0.001-0.032l0 0.002c0.009-0.041 0.014-0.087 0.014-0.135 0-0.004-0-0.008-0-0.011v0.001c-0.006-0.184-0.079-0.35-0.196-0.475l0 0-5-5c-0.136-0.137-0.325-0.222-0.533-0.222-0.415 0-0.751 0.336-0.751 0.751 0 0.208 0.085 0.396 0.221 0.532l3.721 3.72h-20.189c-0.414 0-0.75 0.336-0.75 0.75s0.336 0.75 0.75 0.75v0h20.188l-3.719 3.719c-0.136 0.136-0.22 0.324-0.22 0.531 0 0.415 0.336 0.751 0.751 0.751 0.207 0 0.395-0.084 0.531-0.22l5-5.001c0.025-0.026 0.017-0.064 0.038-0.093z"/> </g>

</svg>