<!DOCTYPE svg PUBLIC "-//W3C//DTD SVG 1.1//EN" "http://www.w3.org/Graphics/SVG/1.1/DTD/svg11.dtd">

<!-- Uploaded to: SVG Repo, www.svgrepo.com, Transformed by: SVG Repo Mixer Tools -->
<svg fill="#b51d1d" height="800px" width="800px" version="1.1" id="Layer_1" xmlns="http://www.w3.org/2000/svg" xmlns:xlink="http://www.w3.org/1999/xlink" viewBox="0 0 512.001 512.001" xml:space="preserve">

<g id="SVGRepo_bgCarrier" stroke-width="0"/>

<g id="SVGRepo_tracerCarrier" stroke-linecap="round" stroke-linejoin="round"/>

<g id="SVGRepo_iconCarrier"> <g> <g> <path d="M141.645,0h-29.459c-4.301,0-7.786,3.486-7.786,7.786v10.882h-8.526c-32.834,0-59.545,26.711-59.545,59.545v60.685 c0,4.3,3.486,7.786,7.786,7.786c4.301,0,7.786-3.486,7.786-7.786V78.214c0-24.247,19.727-43.972,43.972-43.972h8.526v16.483 c0,4.3,3.485,7.786,7.786,7.786h29.459c4.301,0,7.786-3.486,7.786-7.786V7.786C149.432,3.486,145.947,0,141.645,0z M133.86,42.937 h-13.886V15.573h13.886V42.937z"/> </g> </g> <g> <g> <path d="M280.119,18.669h-8.662V7.786c0-4.3-3.485-7.786-7.786-7.786h-29.458c-4.301,0-7.786,3.486-7.786,7.786v42.937 c0,4.3,3.485,7.786,7.786,7.786h29.458c4.301,0,7.786-3.486,7.786-7.786V34.24h8.662c24.246,0,43.972,19.726,43.972,43.972v92.12 c0,75.042-61.053,136.093-136.095,136.093c-36.352,0-70.528-14.156-96.232-39.86c-25.704-25.704-39.861-59.881-39.861-96.232 v-5.916c0-4.3-3.485-7.786-7.786-7.786s-7.786,3.486-7.786,7.786v5.916c0,40.511,15.775,78.598,44.422,107.244 c26.294,26.293,60.543,41.733,97.317,44.093v37.215h0c0,4.3,3.485,7.786,7.786,7.786s7.786-3.486,7.786-7.786v-37.001 c81.022-2.982,146.021-69.813,146.021-151.55v-92.12C339.664,45.38,312.952,18.669,280.119,18.669z M255.883,42.937h-13.886 V15.573h13.886V42.937z"/> </g> </g> <g> <g> <path d="M417.21,143.874c-16.207,0-29.392,13.185-29.392,29.392c0,16.207,13.185,29.392,29.392,29.392 c16.206,0,29.392-13.185,29.392-29.392C446.602,157.059,433.417,143.874,417.21,143.874z M417.21,187.085 c-7.62,0-13.819-6.199-13.819-13.819s6.2-13.819,13.819-13.819c7.62,0,13.819,6.199,13.819,13.819 C431.029,180.885,424.83,187.085,417.21,187.085z"/> </g> </g> <g> <g> <path d="M247.936,206.992c-4.798-21.623-25.267-52.905-49.725-52.905h-0.364c-24.457,0-44.925,31.283-49.724,52.906 c-4.36,19.653,4.841,26.29,9.001,28.231c8.194,3.825,17.754,4.492,27.789,1.95c4.21-1.066,8.562-1.607,12.934-1.607h0.207h0.16 c4.372,0,8.724,0.541,12.934,1.607c3.99,1.01,7.93,1.522,11.711,1.522c0.001,0,0,0,0.001,0c5.731,0,11.14-1.169,16.077-3.473 C243.095,233.282,252.296,226.645,247.936,206.992z M232.35,221.114c-4.933,2.303-10.86,2.617-17.378,0.966 c-5.46-1.383-11.098-2.084-16.758-2.084h-0.16h-0.207c-5.66,0-11.299,0.702-16.758,2.084c-6.519,1.652-12.446,1.336-17.377-0.966 c-0.875-0.409-1.886-3.979-0.385-10.746c3.981-17.944,21.034-40.707,34.522-40.707h0.364c13.487,0,30.539,22.763,34.522,40.706 C234.235,217.133,233.225,220.705,232.35,221.114z"/> </g> </g> <g> <g> <path d="M192.232,98.371c-5.129-11.393-16.518-18.755-29.014-18.755c-4.514,0-8.901,0.946-13.043,2.809 c-7.747,3.486-13.672,9.782-16.684,17.726c-3.011,7.943-2.749,16.585,0.738,24.331c5.744,12.76,24.968,32.053,40.854,32.054 c0.001,0,0.001,0,0.002,0c2.754,0,5.356-0.542,7.729-1.61c8.158-3.673,13.099-13.361,13.912-27.281 C197.333,117.27,195.569,105.78,192.232,98.371z M181.18,126.736c-0.488,8.359-2.808,13.111-4.759,13.99 c-0.355,0.16-0.792,0.238-1.336,0.238h-0.001c-7.741,0-22.494-13.635-26.654-22.873c-1.779-3.954-1.912-8.365-0.376-12.419 c1.535-4.054,4.561-7.267,8.514-9.047c2.117-0.953,4.354-1.437,6.65-1.437c6.381,0,12.196,3.758,14.815,9.575 C179.921,108.96,181.712,117.625,181.18,126.736z"/> </g> </g> <g> <g> <path d="M152.169,158.834c-4.373-7.941-11.034-15.618-16.97-19.559c-4.665-3.097-10.082-4.735-15.664-4.735 c-9.536,0-18.373,4.737-23.641,12.674c-8.647,13.025-5.086,30.658,7.938,39.306c7.283,4.835,19.934,8.345,30.082,8.346 c0.002,0,0.002,0,0.003,0c12.19-0.002,17.912-4.762,20.563-8.755C158.962,179.363,158.141,169.676,152.169,158.834z M141.508,177.497c-0.331,0.499-2.34,1.795-7.59,1.795c0,0-0.001,0-0.002,0c-7.915-0.001-17.308-2.984-21.47-5.746 c-5.871-3.898-7.477-11.848-3.579-17.719c2.375-3.578,6.363-5.714,10.667-5.714c2.508,0,4.947,0.739,7.05,2.136 c3.273,2.173,8.427,7.714,11.942,14.098C142.085,172.804,142.072,176.646,141.508,177.497z"/> </g> </g> <g> <g> <path d="M262.567,100.152c-3.011-7.944-8.936-14.24-16.683-17.727c-4.14-1.864-8.529-2.809-13.043-2.809 c-12.498,0-23.887,7.362-29.015,18.755c-6.723,14.935-8.289,48.584,9.417,56.556c2.373,1.068,4.975,1.61,7.73,1.61 c15.885,0,35.109-19.293,40.855-32.053C265.316,116.738,265.579,108.096,262.567,100.152z M247.63,118.089 c-4.16,9.239-18.914,22.873-26.654,22.873c-0.544,0-0.982-0.078-1.337-0.238c-1.95-0.877-4.27-5.63-4.758-13.99 c-0.533-9.111,1.258-17.777,3.147-21.973c2.618-5.816,8.434-9.574,14.816-9.574c2.294,0,4.532,0.484,6.649,1.437 c3.954,1.779,6.979,4.994,8.515,9.047C249.543,109.726,249.41,114.136,247.63,118.089z"/> </g> </g> <g> <g> <path d="M300.165,147.213c-5.268-7.936-14.106-12.673-23.642-12.673c-5.582,0-11,1.637-15.664,4.735 c-12.006,7.97-28.856,32.413-19.282,46.836c2.652,3.993,8.371,8.754,20.565,8.754c10.147,0,22.8-3.51,30.083-8.346 C305.251,177.871,308.812,160.239,300.165,147.213z M283.612,173.544c-4.163,2.764-13.555,5.747-21.47,5.747 c-5.251,0-7.26-1.296-7.592-1.795c-0.564-0.849-0.577-4.693,2.98-11.151c3.516-6.385,8.669-11.925,11.943-14.098 c2.103-1.397,4.542-2.136,7.05-2.136c4.305,0,8.292,2.137,10.667,5.714C291.089,161.697,289.483,169.647,283.612,173.544z"/> </g> </g> <g> <g> <path d="M417.21,114.805c-32.236,0-58.461,26.226-58.461,58.461c0,29.595,22.11,54.106,50.675,57.928v157.344 c0,59.491-48.399,107.89-107.891,107.89c-59.491,0-107.89-48.399-107.89-107.89v-4.13c0-4.3-3.485-7.786-7.786-7.786 s-7.786,3.486-7.786,7.786v4.13c0,68.078,55.386,123.463,123.464,123.463s123.463-55.385,123.463-123.463V231.193 c28.566-3.821,50.675-28.333,50.675-57.927C475.671,141.03,449.446,114.805,417.21,114.805z M417.21,216.154 c-23.649,0-42.888-19.24-42.888-42.888s19.24-42.888,42.888-42.888c23.648,0,42.888,19.24,42.888,42.888 S440.859,216.154,417.21,216.154z"/> </g> </g> </g>

</svg>